# AST/ASF file generated using VICON BodyLanguage
# -----------------------------------------------
:version 1.10
:name VICON
:units
  mass 1.0
  length 0.45
  angle deg
:documentation
   .ast/.asf automatically generated from VICON data using
   VICON BodyBuilder and BodyLanguage model FoxedUp or BRILLIANT.MOD
:root
   order TX TY TZ RX RY RZ
   axis XYZ
   position 0 0 0  
   orientation 0 0 0 
:bonedata
  begin
     id 1 
     name lhipjoint
     direction 0.64773 -0.699417 0.302095 
     length 2.48597 
     axis 0 0 0  XYZ
  end
  begin
     id 2 
     name lfemur
     direction 0.34202 -0.939693 0  
     length 6.71947  
     axis 0 0 20  XYZ
    dof rx ry rz
    limits (-160.0 20.0)
           (-70.0 70.0)
           (-60.0 70.0)
  end
  begin
     id 3 
     name ltibia
     direction 0.34202 -0.939693 0   
     length 8.08777   
     axis 0 0 20   XYZ
    dof rx
    limits (-10.0 170.0)
  end
  begin
     id 4 
     name lfoot
     direction 0.0808503 -0.222134 0.971658   
     length 2.08264   
     axis -90 7.62852e-016 20   XYZ
    dof rx rz
    limits (-45.0 90.0)
           (-70.0 20.0)
  end
  begin
     id 5 
     name ltoes
     direction 1.53502e-011 -4.22007e-011 1   
     length 1.04662   
     axis -90 7.62852e-016 20   XYZ
    dof rx
    limits (-90.0 20.0)
  end
  begin
     id 6 
     name rhipjoint
     direction -0.610924 -0.726792 0.313919   
     length 2.39233  
     axis 0 0 0  XYZ 
  end
  begin
     id 7 
     name rfemur
     direction -0.34202 -0.939693 0   
     length 6.96955   
     axis 0 0 -20   XYZ
    dof rx ry rz
    limits (-160.0 20.0)
           (-70.0 70.0)
           (-70.0 60.0)
  end
  begin
     id 8 
     name rtibia
     direction -0.34202 -0.939693 0   
     length 8.19584   
     axis 0 0 -20   XYZ
    dof rx
    limits (-10.0 170.0)
 end
 begin
     id 9 
     name rfoot
     direction -0.077777 -0.213691 0.9738   
     length 2.07539  
     axis -90 -7.62852e-016 -20   XYZ
    dof rx rz
    limits (-45.0 90.0)
           (-20.0 70.0)
  end
  begin
     id 10 
     name rtoes
     direction -1.53558e-011 -4.22006e-011 1   
     length 1.04381   
     axis -90 -7.62852e-016 -20   XYZ
    dof rx
    limits (-90.0 20.0)
  end
  begin
     id 11 
     name lowerback
     direction -0.00971646 0.996074 0.0879841   
     length 1.67643   
     axis 0 0 0   XYZ
    dof rx ry rz
    limits (-20.0 45.0)
           (-30.0 30.0)
           (-30.0 30.0)
  end
  begin
     id 12 
     name upperback
     direction 0.0127391 0.991676 0.128127   
     length 1.63741   
     axis 0 0 0   XYZ
    dof rx ry rz
    limits (-20.0 45.0)
           (-30.0 30.0)
           (-30.0 30.0)
  end
  begin
     id 13 
     name thorax
     direction 0.0167583 0.996049 0.0872067   
     length 1.65931   
     axis 0 0 0   XYZ
    dof rx ry rz
    limits (-20.0 45.0)
           (-30.0 30.0)
           (-30.0 30.0)
  end
  begin
     id 14 
     name lowerneck
     direction -0.0317829 0.998312 0.0486079   
     length 1.79021   
     axis 0 0 0   XYZ
    dof rx ry rz
    limits (-20.0 45.0)
           (-30.0 30.0)
           (-30.0 30.0)
  end
  begin
     id 15 
     name upperneck
     direction 0.0896851 0.972452 -0.215159   
     length 1.78797   
     axis 0 0 0   XYZ
    dof rx ry rz
    limits (-20.0 45.0)
           (-30.0 30.0)
           (-30.0 30.0)
  end
  begin
     id 16
     name head
     direction 0.0310949 0.996503 -0.0775582  
     length 1.81549  
     axis 0 0 0   XYZ
    dof rx ry rz
    limits (-20.0 45.0)
           (-30.0 30.0)
           (-30.0 30.0)
  end
  begin
     id 17 
     name lclavicle
     direction 0.853638 0.502051 -0.138733  
     length 3.31627  
     axis 0 0 0   XYZ
    dof ry rz
    limits (-20.0 10.0)
           (0.0 20.0)
  end
  begin
     id 18 
     name lhumerus
     direction 1 -4.48962e-011 -1.41788e-018   
     length 5.54893   
     axis 180 -30 -90   XYZ
    dof rx ry rz
    limits (-60.0 90.0)
           (-90.0 90.0)
           (-90.0 90.0)
  end
  begin
     id 19
     name lradius
     direction 1 -4.48962e-011 -4.95754e-027   
     length 3.02898   
     axis 180 -30 -90   XYZ
    dof rx
    limits (-10.0 170.0)
  end
  begin
     id 20
     name lwrist
     direction 1 -4.48952e-011 -1.03764e-026   
     length 1.51449   
     axis 9.09556e-015 90 90   XYZ
    dof ry
    limits (-180.0 0.0)
 end
  begin
     id 21 
     name lhand
     direction 1 -4.4902e-011 -2.07528e-026   
     length 0.640951   
     axis 1.3242e-014 90 90   XYZ
    dof rx rz
    limits (-90.0 90.0)
           (-45.0 45.0)
  end
  begin
     id 22 
     name lfingers
     direction 1 -4.49014e-011 -4.15056e-026   
     length 0.516751   
     axis 2.64841e-014 90 90   XYZ
    dof rx
    limits (0.0 90.0)
  end
  begin
     id 23
     name lthumb
     direction 0.707107 -6.35008e-011 0.707107   
     length 0.741954   
     axis -90 45 2.85299e-015   XYZ
    dof rx rz
    limits (-45.0 45.0)
           (-45.0 45.0)
  end
  begin
     id 24 
     name rclavicle
     direction -0.888531 0.455324 -0.0565039   
     length 3.20126  
     axis 0 0 0   XYZ 
    dof ry rz
    limits (-10.0 20.0)
           (-20.0 0.0)
  end
  begin
     id 25 
     name rhumerus
     direction -1 -4.48946e-011 -8.98298e-028  
     length 5.3519   
     axis 180 30 90   XYZ
    dof rx ry rz
    limits (-90.0 60.0)
           (-90.0 90.0)
           (-90.0 90.0)
  end
  begin
     id 26 
     name rradius
     direction -1 -4.4899e-011 -3.18779e-027   
     length 3.02531   
     axis 180 30 90   XYZ
    dof rx
    limits (-10.0 170.0)
  end
  begin
     id 27 
     name rwrist
     direction -1 -4.4897e-011 -1.03764e-026   
     length 1.51266   
     axis 9.09556e-015 -90 -90   XYZ
    dof ry
    limits (-180.0 0.0)
  end
  begin
     id 28
     name rhand
     direction -1 -4.48941e-011 -2.07528e-026   
     length 0.78389   
     axis 1.3242e-014 -90 -90   XYZ
    dof rx rz
    limits (-90.0 90.0)
           (-45.0 45.0)
  end
  begin
     id 29
     name rfingers
     direction -1 -4.49012e-011 -4.15056e-026   
     length 0.631992   
     axis 2.64841e-014 -90 -90   XYZ
    dof rx
    limits (0.0 90.0)
  end
  begin
     id 30
     name rthumb
     direction -0.707107 -6.3496e-011 0.707107   
     length 0.907418   
     axis -90 -45 -2.85299e-015   XYZ
    dof rx rz
    limits (-45.0 45.0)
           (-45.0 45.0)
  end
:hierarchy
  begin
    root lhipjoint rhipjoint lowerback
    lhipjoint lfemur
    lfemur ltibia
    ltibia lfoot
    lfoot ltoes
    rhipjoint rfemur
    rfemur rtibia
    rtibia rfoot
    rfoot rtoes
    lowerback upperback
    upperback thorax
    thorax lowerneck lclavicle rclavicle
    lowerneck upperneck
    upperneck head
    lclavicle lhumerus
    lhumerus lradius
    lradius lwrist
    lwrist lhand lthumb
    lhand lfingers
    rclavicle rhumerus
    rhumerus rradius
    rradius rwrist
    rwrist rhand rthumb
    rhand rfingers
  end

#!OML:ASF E:\Style3\Style3.ASF
:FULLY-SPECIFIED
:DEGREES
2336
root -0.0635996 17.8517 0.708379 -126.27 87.2082 -138.231
lowerback -7.25754 0.294331 -0.0606931
upperback -6.04729 0.609311 0.138618
thorax -2.17938 0.402003 0.204895
lowerneck -4.12462 3.35691 -1.94776
upperneck 9.35467 4.25033 5.58534
head 3.60877 2.31628 2.3876
rclavicle 3.90115e-015 5.76476e-015
rhumerus -13.7254 47.3265 -95.4668
rradius 130.215
rwrist 7.74626
rhand -21.7427 30.2069
rfingers 7.12502
rthumb 4.6572 0.278048
lclavicle 3.90115e-015 5.76476e-015
lhumerus -16.1139 -44.2583 97.4895
lradius 132.275
lwrist 20.4229
lhand -32.2334 4.4082
lfingers 7.12502
lthumb -5.47409 34.3175
rfemur -9.68992 13.5531 15.6812
rtibia 8.43654
rfoot -9.06474 -21.413
rtoes -22.7894
lfemur 0 0 0
ltibia 0
lfoot 0 0
ltoes 0
2337
root -0.0677804 17.8525 0.70869 -126.174 87.0952 -138.087
lowerback -7.30003 0.218945 0.0181996
upperback -6.02276 0.504849 0.207569
thorax -2.12997 0.348014 0.226791
lowerneck -4.50252 3.22774 -2.11709
upperneck 10.5488 4.05787 5.76819
head 4.10916 2.24519 2.52643
rclavicle 1.44119e-015 3.97569e-015
rhumerus -12.8496 47.6744 -94.8542
rradius 130.231
rwrist 7.26943
rhand -21.7737 30.3914
rfingers 7.12502
rthumb 4.62729 0.461946
lclavicle 1.44119e-015 3.97569e-015
lhumerus -15.1131 -44.2124 96.6893
lradius 132.282
lwrist 19.806
lhand -32.2408 4.77275
lfingers 7.12502
lthumb -5.48119 34.6819
rfemur -9.62241 13.4981 15.7958
rtibia 8.41096
rfoot -9.02319 -21.4269
rtoes -22.6904
lfemur 0 0 0
ltibia 0
lfoot 0 0
ltoes 0
2338
root -0.0716486 17.8527 0.709495 -126.663 87.0644 -138.559
lowerback -7.30151 0.169376 0.0204135
upperback -6.05841 0.441222 0.241959
thorax -2.16632 0.317633 0.25741
lowerneck -4.82622 3.05771 -2.1506
upperneck 12.1861 3.77897 5.97298
head 4.26901 2.16459 2.37787
rclavicle 3.65267e-015 -7.55382e-015
rhumerus -12.1283 47.9819 -94.2986
rradius 130.279
rwrist 6.77772
rhand -21.8488 30.3154
rfingers 7.12502
rthumb 4.55481 0.384359
lclavicle 3.65267e-015 -7.55382e-015
lhumerus -14.2418 -44.2664 96.0139
lradius 132.281
lwrist 19.2961
lhand -32.3806 5.1683
lfingers 7.12502
lthumb -5.61619 35.0739
rfemur -9.58554 13.4611 15.7999
rtibia 8.36615
rfoot -9.02061 -21.4112
rtoes -22.464
lfemur 0 0 0
ltibia 0
lfoot 0 0
ltoes 0
2339
root -0.0775454 17.8531 0.71244 -127.417 87.0477 -139.281
lowerback -7.23666 0.171388 -0.0232173
upperback -6.12286 0.449248 0.23918
thorax -2.26964 0.324433 0.278542
lowerneck -5.13891 2.83957 -2.18301
upperneck 13.509 3.46422 6.06297
head 4.73664 2.04393 2.42973
rclavicle -6.21202e-016 -3.18055e-015
rhumerus -11.5357 48.0946 -93.7797
rradius 130.342
rwrist 6.40633
rhand -22.0379 30.1753
rfingers 7.12502
rthumb 4.37219 0.240478
lclavicle -6.21202e-016 -3.18055e-015
lhumerus -13.4838 -44.5012 95.437
lradius 132.208
lwrist 18.8877
lhand -32.6953 4.65483
lfingers 7.12502
lthumb -5.92002 34.5521
rfemur -9.55594 13.4255 15.8021
rtibia 8.35347
rfoot -8.91729 -21.426
rtoes -22.5446
lfemur 0 0 0
ltibia 0
lfoot 0 0
ltoes 0
2340
root -0.0831522 17.8538 0.715697 -128.511 87.0378 -140.34
lowerback -7.31139 0.169121 -0.0419674
upperback -6.11579 0.446909 0.181688
thorax -2.22061 0.322907 0.230299
lowerneck -5.31877 2.63757 -2.2468
upperneck 14.6046 3.16094 6.2936
head 5.11157 1.93363 2.52332
rclavicle -3.01904e-015 1.25234e-014
rhumerus -10.8143 48.1398 -93.2736
rradius 130.374
rwrist 6.1669
rhand -22.3223 30.2465
rfingers 7.12502
rthumb 4.09751 0.306209
lclavicle -3.01904e-015 1.25234e-014
lhumerus -12.6021 -44.7679 94.676
lradius 132.166
lwrist 18.5002
lhand -32.845 4.43487
lfingers 7.12502
lthumb -6.06455 34.3281
rfemur -9.55201 13.381 15.7904
rtibia 8.39374
rfoot -8.94917 -21.4337
rtoes -22.3829
lfemur 0 0 0
ltibia 0
lfoot 0 0
ltoes 0
2341
root -0.0874972 17.8533 0.716779 -128.778 87.0581 -140.605
lowerback -7.502 0.122941 -0.0910619
upperback -6.07215 0.387678 0.197702
thorax -2.07001 0.294911 0.272712
lowerneck -5.39111 2.53217 -2.30609
upperneck 15.5143 3.00773 6.38687
head 5.40949 1.8842 2.57571
rclavicle 1.27843e-014 3.37934e-015
rhumerus -9.85699 48.2945 -92.5824
rradius 130.411
rwrist 5.84525
rhand -22.5482 30.4318
rfingers 7.12502
rthumb 3.87942 0.487364
lclavicle 1.27843e-014 3.37934e-015
lhumerus -11.5716 -44.8469 93.8013
lradius 132.135
lwrist 18.1494
lhand -32.861 4.67468
lfingers 7.12502
lthumb -6.07999 34.5674
rfemur -9.5987 13.3823 15.7541
rtibia 8.43627
rfoot -8.90413 -21.4202
rtoes -22.3994
lfemur 0 0 0
ltibia 0
lfoot 0 0
ltoes 0
2342
root -0.0903892 17.8537 0.718077 -128.425 87.063 -140.254
lowerback -7.63717 0.0648938 -0.13455
upperback -6.05897 0.314131 0.264018
thorax -1.98192 0.26101 0.362149
lowerneck -5.39241 2.46826 -2.44923
upperneck 16.3547 2.91548 6.52788
head 5.67018 1.86188 2.6583
rclavicle -9.69075e-015 1.98785e-016
rhumerus -8.89042 48.5372 -91.8519
rradius 130.447
rwrist 5.64177
rhand -22.6806 30.265
rfingers 7.12502
rthumb 3.75157 0.318241
lclavicle -9.69075e-015 1.98785e-016
lhumerus -10.4726 -44.7852 92.9592
lradius 132.025
lwrist 17.9552
lhand -32.8234 4.65197
lfingers 7.12502
lthumb -6.04374 34.5458
rfemur -9.63372 13.4006 15.7622
rtibia 8.47081
rfoot -9.0637 -21.4023
rtoes -21.7472
lfemur 0 0 0
ltibia 0
lfoot 0 0
ltoes 0
2343
root -0.0927191 17.8542 0.718751 -128.229 87.0298 -140.024
lowerback -7.75276 0.0206182 -0.0721562
upperback -5.99927 0.249735 0.281514
thorax -1.85544 0.225986 0.342289
lowerneck -5.55626 2.37094 -2.58358
upperneck 17.2872 2.76804 6.71876
head 5.9919 1.82085 2.75854
rclavicle 9.69075e-016 2.98177e-015
rhumerus -7.95112 48.671 -91.204
rradius 130.468
rwrist 5.64965
rhand -22.9763 29.5042
rfingers 7.12502
rthumb 3.46596 -0.447358
lclavicle 9.69075e-016 2.98177e-015
lhumerus -9.30357 -44.7749 92.0311
lradius 131.882
lwrist 17.8606
lhand -32.6959 4.63228
lfingers 7.12502
lthumb -5.92061 34.5296
rfemur -9.62098 13.3932 15.8049
rtibia 8.53337
rfoot -9.58194 -21.3468
rtoes -19.9697
lfemur 0 0 0
ltibia 0
lfoot 0 0
ltoes 0
2344
root -0.0972749 17.8542 0.718724 -129.037 87.0266 -140.796
lowerback -7.80535 0.00289016 -0.057366
upperback -5.96092 0.22351 0.262546
thorax -1.78622 0.211242 0.31327
lowerneck -5.73341 2.23242 -2.69968
upperneck 18.1976 2.5595 6.92671
head 6.31514 1.75378 2.85842
rclavicle -4.74598e-015 4.77083e-015
rhumerus -7.07525 48.6355 -90.5586
rradius 130.515
rwrist 5.62702
rhand -23.4106 29.0807
rfingers 7.12502
rthumb 3.04655 -0.877331
lclavicle -4.74598e-015 4.77083e-015
lhumerus -8.18239 -44.884 91.1493
lradius 131.731
lwrist 17.8464
lhand -32.5363 4.57586
lfingers 7.12502
lthumb -5.76657 34.4774
rfemur -9.60955 13.3627 15.7847
rtibia 8.58247
rfoot -9.68575 -21.3185
rtoes -20.2027
lfemur 0 0 0
ltibia 0
lfoot 0 0
ltoes 0
2345
root -0.101742 17.8533 0.719664 -130.015 87.0849 -141.742
lowerback -7.82927 0.0766051 -0.11581
upperback -5.94999 0.323968 0.169788
thorax -1.76196 0.261515 0.25677
lowerneck -5.96707 2.02663 -2.71475
upperneck 19.18 2.24196 7.15921
head 6.68207 1.6481 2.94628
rclavicle 4.87022e-015 -3.37934e-015
rhumerus -6.41328 48.3564 -90.0144
rradius 130.582
rwrist 5.62715
rhand -23.6886 29.0817
rfingers 7.12502
rthumb 2.77805 -0.879938
lclavicle 4.87022e-015 -3.37934e-015
lhumerus -7.09377 -45.3028 90.3262
lradius 131.619
lwrist 17.8173
lhand -32.4407 4.7786
lfingers 7.12502
lthumb -5.67426 34.6826
rfemur -9.62599 13.3643 15.7075
rtibia 8.61305
rfoot -9.20152 -21.3756
rtoes -22.353
lfemur 0 0 0
ltibia 0
lfoot 0 0
ltoes 0
2346
root -0.104805 17.8538 0.720926 -129.775 87.1066 -141.474
lowerback -7.8716 0.227011 -0.074437
upperback -5.97178 0.522803 0.0350316
thorax -1.76085 0.358265 0.10711
lowerneck -5.9592 1.76671 -2.60904
upperneck 20.0472 1.84193 7.36555
head 6.97994 1.50924 2.99272
rclavicle 3.97569e-016 5.96354e-016
rhumerus -6.00827 47.9616 -89.6677
rradius 130.629
rwrist 5.63048
rhand -24.0264 28.4863
rfingers 7.12502
rthumb 2.45188 -1.47936
lclavicle 3.97569e-016 5.96354e-016
lhumerus -6.1425 -45.9097 89.6195
lradius 131.564
lwrist 17.7437
lhand -32.3288 5.15287
lfingers 7.12502
lthumb -5.56617 35.0598
rfemur -9.62414 13.3917 15.7044
rtibia 8.62218
rfoot -9.01338 -21.4057
rtoes -23.0506
lfemur 0 0 0
ltibia 0
lfoot 0 0
ltoes 0
2347
root -0.107175 17.8545 0.720241 -129.139 87.0802 -140.798
lowerback -7.87252 0.337422 0.0494546
upperback -6.03 0.665475 -0.0615941
thorax -1.81899 0.425638 -0.05358
lowerneck -5.82164 1.54503 -2.57031
upperneck 20.8581 1.49432 7.62379
head 7.23492 1.39628 3.06797
rclavicle -1.31695e-015 -8.34896e-015
rhumerus -5.6248 47.6716 -89.3571
rradius 130.622
rwrist 5.52712
rhand -24.3144 27.8568
rfingers 7.12502
rthumb 2.17371 -2.11186
lclavicle -1.31695e-015 -8.34896e-015
lhumerus -5.25266 -46.3819 88.9699
lradius 131.459
lwrist 17.6256
lhand -32.2081 5.28461
lfingers 7.12502
lthumb -5.44969 35.1945
rfemur -9.58125 13.4054 15.7562
rtibia 8.61045
rfoot -8.92135 -21.4191
rtoes -23.1956
lfemur 0 0 0
ltibia 0
lfoot 0 0
ltoes 0
2348
root -0.111604 17.8553 0.720818 -128.998 87.0355 -140.683
lowerback -7.90399 0.344254 0.0583348
upperback -6.10563 0.678977 -0.0509638
thorax -1.88052 0.434392 -0.0471168
lowerneck -5.86623 1.39872 -2.69821
upperneck 21.8418 1.26326 7.89765
head 7.57405 1.33568 3.19501
rclavicle 3.32964e-015 3.97569e-016
rhumerus -5.2677 47.6427 -89.0687
rradius 130.634
rwrist 5.29387
rhand -24.5101 27.543
rfingers 7.12502
rthumb 1.98467 -2.42749
lclavicle 3.32964e-015 3.97569e-016
lhumerus -4.30939 -46.5874 88.2967
lradius 131.332
lwrist 17.3591
lhand -32.3142 5.34398
lfingers 7.12502
lthumb -5.55214 35.2512
rfemur -9.58216 13.382 15.7944
rtibia 8.54351
rfoot -8.86003 -21.406
rtoes -22.904
lfemur 0 0 0
ltibia 0
lfoot 0 0
ltoes 0
